<svg xmlns="http://www.w3.org/2000/svg" xmlns:xlink="http://www.w3.org/1999/xlink" width="472.71" height="79.743" viewBox="0 0 472.71 79.743">
  <defs>
    <linearGradient id="linear-gradient" y1="0.5" x2="1" y2="0.5" gradientUnits="objectBoundingBox">
      <stop offset="0" stop-color="#916528"/>
      <stop offset="0.52" stop-color="#f5f3b3"/>
      <stop offset="1" stop-color="#936728"/>
    </linearGradient>
  </defs>
  <path id="stamp-04_1_-01" data-name="stamp-04 (1)-01" d="M79.29,17.818h15.2V95.35H79.29Zm31.148,0h15.236v64.9h25.731V95.35H110.438Zm53.223,0h15.168V95.35H163.662Zm27.932,38.529a40.053,40.053,0,0,1,40.256-39.68,42.626,42.626,0,0,1,33.112,14.694l-10.157,8.8a26.171,26.171,0,0,0-22.82-10.936c-14.558,0-25.189,12.324-25.189,27.086,0,15.3,10.529,27.39,25.189,27.39a22.65,22.65,0,0,0,23.226-19.231h-21.33V54.79h36.295c.745,26.341-17.1,41.61-38.326,41.61a40.154,40.154,0,0,1-40.256-40.019Zm107.834-26v19.3h28.981V62.17H299.428V82.688H332.54V95.35H284.226V17.818H332.54V30.345Zm45.131-12.764h12.324l41.2,51.632V17.818h15.371V95.452H401.134L359.761,44.159V95.35h-15.2Zm129.4,13.543H456.524V95.452H441.356V31.124h-17.4V17.818H473.96ZM24.442,17.818H1.25L16.113,30.345h8.329c17.876,0,27.086,9.277,27.086,25.664C51.528,70.8,41,82.654,23.9,82.654H15.775L1.25,95.316H24.1c25.494,0,42.49-16.184,42.49-39.206C66.662,31.361,50.918,17.818,24.442,17.818ZM21.361,33.6H19.837l7.11,5.993c5.451,4.571,10.428,8.938,10.428,16.658,0,10.36-10.6,16.691-17.47,22.684l-.677.609h1.93c15.134,0,25.156-9.548,25.156-23.192.1-14.829-9.209-22.82-24.953-22.82Z" transform="translate(-1.25 -16.657)" fill="url(#linear-gradient)"/>
</svg>
